<svg viewBox="0 0 200 200" xmlns="http://www.w3.org/2000/svg">
  <!-- Logo v6: 8-petal symmetric -->
  <g transform="translate(100, 100)">
    <ellipse cx="0" cy="-36" rx="12" ry="26" fill="#8b6f47" opacity="0.5" transform="rotate(0)"/>
    <ellipse cx="0" cy="-36" rx="12" ry="26" fill="#8b6f47" opacity="0.5" transform="rotate(45)"/>
    <ellipse cx="0" cy="-36" rx="12" ry="26" fill="#8b6f47" opacity="0.5" transform="rotate(90)"/>
    <ellipse cx="0" cy="-36" rx="12" ry="26" fill="#8b6f47" opacity="0.5" transform="rotate(135)"/>
    <ellipse cx="0" cy="-36" rx="12" ry="26" fill="#8b6f47" opacity="0.5" transform="rotate(180)"/>
    <ellipse cx="0" cy="-36" rx="12" ry="26" fill="#8b6f47" opacity="0.5" transform="rotate(225)"/>
    <ellipse cx="0" cy="-36" rx="12" ry="26" fill="#8b6f47" opacity="0.5" transform="rotate(270)"/>
    <ellipse cx="0" cy="-36" rx="12" ry="26" fill="#8b6f47" opacity="0.5" transform="rotate(315)"/>
    <path d="M 0,-8 C -8,-16 -16,-16 -16,-8 C -16,0 0,16 0,16 C 0,16 16,0 16,-8 C 16,-16 8,-16 0,-8 Z" fill="#6b3f2a"/>
    <circle cx="0" cy="0" r="5" fill="#f9f8f6"/>
  </g>
</svg>